#!OML:ASF H:\Pregnant\Project 1\Capture day 1\Session 1\femalepreg.ASF
:FULLY-SPECIFIED
:DEGREES
741
root -8.78079 15.5339 -5.07718 19.0779 -5.63424 -1.35482
lowerback -10.4739 0.530754 7.1041
upperback -3.78045 -0.102651 3.03768
thorax 1.911 -0.0763126 -0.844839
lowerneck -15.7423 1.73395 3.04227
upperneck 23.7227 3.09612 -5.72859
head 10.3212 1.01609 -2.13143
rclavicle -7.7526e-015 -2.06736e-014
rhumerus -25.8191 4.00424 -83.3847
rradius 26.0859
rwrist -0.55935
rhand -33.1853 -29.033
rfingers 7.12502
rthumb -6.39314 -58.9166
lclavicle -7.7526e-015 -2.06736e-014
lhumerus -47.9564 -1.13397 78.2929
lradius 41.3336
lwrist 41.5017
lhand -34.1214 -9.39038
lfingers 7.12502
lthumb -7.29678 20.4638
rfemur -46.5715 13.6726 14.6348
rtibia 48.6186
rfoot -18.8325 -7.46396
rtoes -20.6714
lfemur -37.8746 -6.36538 -20.4037
ltibia 71.1994
lfoot 2.64165 -10.9423
ltoes -22.529
742
root -8.79853 15.5508 -4.92252 19.082 -5.53347 -1.41256
lowerback -10.4593 0.500745 7.37935
upperback -3.84209 -0.166793 3.11799
thorax 1.8319 -0.112832 -0.921867
lowerneck -15.8232 1.66034 2.99072
upperneck 23.8383 3.02379 -5.78176
head 10.3752 0.969128 -2.1533
rclavicle 2.97183e-014 -1.11319e-014
rhumerus -24.8978 4.80656 -83.961
rradius 27.9487
rwrist -2.17523
rhand -33.3122 -28.3587
rfingers 7.12502
rthumb -6.51561 -58.2384
lclavicle 2.97183e-014 -1.11319e-014
lhumerus -47.7441 -0.264736 77.5229
lradius 38.3801
lwrist 42.7178
lhand -34.8511 -9.00101
lfingers 7.12502
lthumb -8.00106 20.8275
rfemur -45.6744 13.9822 14.8177
rtibia 48.3231
rfoot -19.1586 -8.04301
rtoes -20.8612
lfemur -39.3488 -6.28912 -20.2909
ltibia 71.7254
lfoot 1.88185 -10.3656
ltoes -22.887
743
root -8.81607 15.5679 -4.768 19.104 -5.44536 -1.44799
lowerback -10.4487 0.482366 7.58913
upperback -3.9122 -0.208286 3.19264
thorax 1.74789 -0.138311 -0.965494
lowerneck -15.9172 1.55678 2.90871
upperneck 23.9348 2.91956 -5.8459
head 10.423 0.903425 -2.17813
rclavicle -8.15017e-015 -1.43125e-014
rhumerus -24.0929 5.67155 -84.497
rradius 29.9522
rwrist -4.00303
rhand -33.0192 -27.3719
rfingers 7.12502
rthumb -6.23278 -57.2602
lclavicle -8.15017e-015 -1.43125e-014
lhumerus -47.4742 0.440687 76.837
lradius 35.3848
lwrist 44.0601
lhand -35.4479 -8.44498
lfingers 7.12502
lthumb -8.57699 21.3608
rfemur -44.7922 14.2582 14.9846
rtibia 48.0085
rfoot -19.4689 -8.57647
rtoes -21.0921
lfemur -40.774 -6.21822 -20.1912
ltibia 72.0279
lfoot 1.08001 -9.82447
ltoes -23.1626
744
root -8.83321 15.5854 -4.61367 19.1491 -5.3616 -1.45902
lowerback -10.4399 0.47323 7.73773
upperback -3.99797 -0.229939 3.25722
thorax 1.6502 -0.154524 -0.983175
lowerneck -16.0132 1.42238 2.79769
upperneck 24.0097 2.77881 -5.90938
head 10.4611 0.818583 -2.20263
rclavicle 2.74323e-014 6.36111e-015
rhumerus -23.4005 6.57748 -84.9905
rradius 32.0501
rwrist -5.94309
rhand -32.4345 -26.0311
rfingers 7.12502
rthumb -5.66825 -55.9353
lclavicle 2.74323e-014 6.36111e-015
lhumerus -47.176 1.0143 76.2041
lradius 32.3858
lwrist 45.3954
lhand -35.8147 -7.73197
lfingers 7.12502
lthumb -8.931 22.059
rfemur -43.9309 14.4865 15.1335
rtibia 47.6762
rfoot -19.7626 -9.06068
rtoes -21.3601
lfemur -42.1529 -6.15861 -20.1049
ltibia 72.1071
lfoot 0.246508 -9.27819
ltoes -23.3996
745
root -8.84954 15.6034 -4.45905 19.2075 -5.27062 -1.44616
lowerback -10.4296 0.468104 7.83534
upperback -4.09341 -0.239793 3.31069
thorax 1.54283 -0.165202 -0.982662
lowerneck -16.1182 1.26027 2.65896
upperneck 24.0638 2.60403 -5.96624
head 10.4914 0.71646 -2.22455
rclavicle 9.54166e-015 -1.43125e-014
rhumerus -22.7959 7.5222 -85.4394
rradius 34.2018
rwrist -7.89965
rhand -31.5996 -24.4922
rfingers 7.12502
rthumb -4.86215 -54.4164
lclavicle 9.54166e-015 -1.43125e-014
lhumerus -46.8733 1.5095 75.5909
lradius 29.4489
lwrist 46.5586
lhand -35.8956 -6.81321
lfingers 7.12502
lthumb -9.00906 22.9744
rfemur -43.0717 14.6642 15.2665
rtibia 47.3197
rfoot -20.038 -9.50151
rtoes -21.6615
lfemur -43.4708 -6.11313 -20.0331
ltibia 71.9639
lfoot -0.606037 -8.69863
ltoes -23.6158
746
root -8.86513 15.6219 -4.30381 19.2773 -5.17281 -1.42097
lowerback -10.4212 0.465524 7.89569
upperback -4.19411 -0.241906 3.35291
thorax 1.43182 -0.172105 -0.972264
lowerneck -16.231 1.07357 2.50254
upperneck 24.0921 2.39561 -6.01244
head 10.5119 0.598737 -2.24398
rclavicle 2.78299e-015 -3.97569e-014
rhumerus -22.2542 8.49834 -85.8479
rradius 36.3646
rwrist -9.76657
rhand -30.553 -22.9143
rfingers 7.12502
rthumb -3.85153 -52.8592
lclavicle 2.78299e-015 -3.97569e-014
lhumerus -46.5917 2.00668 74.9348
lradius 26.6354
lwrist 47.3396
lhand -35.7193 -5.54429
lfingers 7.12502
lthumb -8.83897 24.2506
rfemur -42.207 14.7938 15.3963
rtibia 46.9333
rfoot -20.295 -9.89973
rtoes -21.9934
lfemur -44.7252 -6.07597 -19.9647
ltibia 71.611
lfoot -1.46312 -8.06636
ltoes -23.8041
747
root -8.87984 15.6407 -4.14788 19.3564 -5.06292 -1.39463
lowerback -10.4153 0.461988 7.93202
upperback -4.29499 -0.242835 3.38714
thorax 1.32233 -0.178247 -0.95669
lowerneck -16.3519 0.867616 2.33059
upperneck 24.0925 2.15894 -6.04219
head 10.5222 0.468823 -2.2584
rclavicle 1.09332e-014 1.43125e-014
rhumerus -21.7496 9.5201 -86.2174
rradius 38.5003
rwrist -11.4829
rhand -29.3738 -21.3779
rfingers 7.12502
rthumb -2.71268 -51.3404
lclavicle 1.09332e-014 1.43125e-014
lhumerus -46.3503 2.59825 74.1681
lradius 24.0036
lwrist 47.5147
lhand -35.2997 -3.94897
lfingers 7.12502
lthumb -8.43402 25.8626
rfemur -41.3292 14.8846 15.5326
rtibia 46.5094
rfoot -20.5279 -10.261
rtoes -22.3314
lfemur -45.9189 -6.04746 -19.887
ltibia 71.0604
lfoot -2.29343 -7.38849
ltoes -23.9296
748
root -8.89358 15.6591 -3.99113 19.4422 -4.94559 -1.37954
lowerback -10.411 0.458033 7.95937
upperback -4.39339 -0.243544 3.41534
thorax 1.21642 -0.184079 -0.942369
lowerneck -16.4782 0.64402 2.13918
upperneck 24.0649 1.89552 -6.04797
head 10.522 0.328024 -2.26418
rclavicle -2.21645e-014 -2.70347e-014
rhumerus -21.2689 10.5981 -86.5478
rradius 40.5962
rwrist -12.9843
rhand -28.1375 -20.0454
rfingers 7.12502
rthumb -1.51873 -50.0198
lclavicle -2.21645e-014 -2.70347e-014
lhumerus -46.1724 3.37665 73.2167
lradius 21.6039
lwrist 46.8851
lhand -34.6931 -2.13113
lfingers 7.12502
lthumb -7.84857 27.7032
rfemur -40.4347 14.9481 15.6856
rtibia 46.0462
rfoot -20.7379 -10.5816
rtoes -22.6573
lfemur -47.0485 -6.02078 -19.7878
ltibia 70.3273
lfoot -3.07789 -6.67735
ltoes -23.9779
749
root -8.90619 15.6771 -3.83328 19.5269 -4.81889 -1.38007
lowerback -10.4078 0.451021 7.98697
upperback -4.48264 -0.248891 3.43856
thorax 1.12027 -0.191765 -0.933875
lowerneck -16.6103 0.407495 1.92964
upperneck 24.0073 1.61165 -6.02942
head 10.5112 0.179442 -2.26049
rclavicle 1.44119e-014 -2.38542e-014
rhumerus -20.7997 11.7341 -86.8368
rradius 42.6432
rwrist -14.2304
rhand -26.9541 -18.9038
rfingers 7.12502
rthumb -0.375746 -48.8832
lclavicle 1.44119e-014 -2.38542e-014
lhumerus -46.0885 4.36293 72.0657
lradius 19.532
lwrist 45.4394
lhand -34.0979 -0.156453
lfingers 7.12502
lthumb -7.27404 29.6985
rfemur -39.5124 14.9949 15.8596
rtibia 45.5425
rfoot -20.9291 -10.8711
rtoes -22.9636
lfemur -48.1068 -5.99753 -19.6642
ltibia 69.4205
lfoot -3.80446 -5.95557
ltoes -24.0536
750
root -8.91792 15.6941 -3.67435 19.617 -4.69452 -1.40079
lowerback -10.4065 0.444683 8.01645
upperback -4.5678 -0.253868 3.45648
thorax 1.02942 -0.199099 -0.931874
lowerneck -16.7396 0.160613 1.70122
upperneck 23.9233 1.31121 -5.98505
head 10.49 0.0250771 -2.24613
rclavicle 5.56597e-015 1.27222e-014
rhumerus -20.348 12.9309 -87.0885
rradius 44.6394
rwrist -15.2179
rhand -25.9153 -17.908
rfingers 7.12502
rthumb 0.627542 -47.8868
lclavicle 5.56597e-015 1.27222e-014
lhumerus -46.1344 5.52534 70.724
lradius 17.7912
lwrist 43.0793
lhand -33.4611 1.5443
lfingers 7.12502
lthumb -6.65932 31.4196
rfemur -38.5769 15.0381 16.0532
rtibia 45.0037
rfoot -21.098 -11.1289
rtoes -23.2543
lfemur -49.0981 -5.97049 -19.5104
ltibia 68.3508
lfoot -4.45696 -5.23466
ltoes -24.1716
751
root -8.92894 15.7102 -3.51414 19.711 -4.5849 -1.43992
lowerback -10.4106 0.440506 8.03945
upperback -4.64281 -0.256676 3.47263
thorax 0.952426 -0.204662 -0.92787
lowerneck -16.8737 -0.0926695 1.45235
upperneck 23.8132 1.00236 -5.92198
head 10.4606 -0.1324 -2.22235
rclavicle 6.75868e-015 7.95139e-015
rhumerus -19.9046 14.1768 -87.2949
rradius 46.5879
rwrist -15.9219
rhand -24.9964 -17.1779
rfingers 7.12502
rthumb 1.515 -47.1522
lclavicle 6.75868e-015 7.95139e-015
lhumerus -46.3407 6.66706 69.367
lradius 16.4936
lwrist 40.1428
lhand -32.9374 2.90069
lfingers 7.12502
lthumb -6.15375 32.7913
rfemur -37.632 15.0981 16.2596
rtibia 44.4351
rfoot -21.2444 -11.3627
rtoes -23.5336
lfemur -50.0144 -5.93135 -19.3302
ltibia 67.1209
lfoot -5.03111 -4.51479
ltoes -24.3914
752
root -8.93964 15.725 -3.35269 19.8137 -4.50105 -1.49336
lowerback -10.4196 0.442661 8.04845
upperback -4.71164 -0.250678 3.48285
thorax 0.88539 -0.205289 -0.92134
lowerneck -17.0095 -0.350851 1.19814
upperneck 23.6789 0.686905 -5.85413
head 10.4237 -0.292413 -2.1965
rclavicle -1.75924e-014 4.13472e-014
rhumerus -19.4786 15.4536 -87.464
rradius 48.4958
rwrist -16.3647
rhand -24.2655 -16.6312
rfingers 7.12502
rthumb 2.2209 -46.5994
lclavicle -1.75924e-014 4.13472e-014
lhumerus -46.7032 7.552 68.1923
lradius 15.6709
lwrist 37.0362
lhand -32.6075 3.82059
lfingers 7.12502
lthumb -5.83524 33.7202
rfemur -36.6927 15.1824 16.4705
rtibia 43.845
rfoot -21.3675 -11.5753
rtoes -23.8224
lfemur -50.861 -5.87775 -19.126
ltibia 65.7401
lfoot -5.51963 -3.77745
ltoes -24.7075
